<svg width="112" height="62" viewBox="0 0 112 62" fill="none" xmlns="http://www.w3.org/2000/svg">
<g clip-path="url(#clip0_423_3306)">
<path d="M0 0H97.1949C105.37 0 112 6.62774 112 14.7871V62H14.8051C6.63022 62 0 55.3723 0 47.2129V0Z" fill="white"/>
<path d="M74.6164 42.7852C75.9045 39.6551 77.109 36.7255 78.3135 33.796C80.1593 29.3069 82.0162 24.8235 83.8229 20.3233C84.0906 19.6605 84.4084 19.4544 85.0943 19.4767C86.8174 19.5213 88.546 19.5157 90.2691 19.4767C90.8435 19.4656 91.1613 19.5881 91.4234 20.1785C94.6799 27.4356 97.9755 34.6815 101.266 41.9219C101.528 42.4956 101.65 42.8353 100.764 42.8075C99.1521 42.7518 97.5294 42.7629 95.9179 42.8075C95.3324 42.8242 95.0368 42.6014 94.8974 42.0779C94.8863 42.0444 94.8751 42.0054 94.864 41.972C94.2729 40.7245 94.1725 38.9422 93.113 38.3184C92.1037 37.7225 90.4754 38.1569 89.1148 38.1513C87.2412 38.1458 85.3675 38.1792 83.4995 38.1291C82.8638 38.1123 82.6128 38.3463 82.4009 38.9032C81.9102 40.1898 81.8266 41.9943 80.7838 42.607C79.741 43.2196 78.0737 42.774 76.6796 42.7908C76.0607 42.7963 75.4361 42.7908 74.6108 42.7908L74.6164 42.7852ZM87.7319 24.9293C86.5497 28.0371 85.44 30.9611 84.3136 33.9296H91.4903C90.2412 30.9332 89.0256 28.0259 87.7319 24.9293Z" fill="#044D8C"/>
<path d="M55.7519 42.7852C53.6775 42.7852 51.8485 42.7629 50.0194 42.7963C49.473 42.8074 49.2499 42.4677 48.9767 42.1279C47.1421 39.8556 45.3075 37.5832 43.4673 35.3053C43.0714 35.5113 43.2275 35.8399 43.2275 36.0961C43.2108 38.0343 43.194 39.9725 43.2275 41.9107C43.2387 42.5457 43.1104 42.8353 42.3855 42.8019C41.1754 42.7462 39.9654 42.7684 38.7497 42.7963C38.2311 42.8074 38.0471 42.6459 38.0471 42.1112C38.0638 35.4557 38.0638 28.8056 38.0471 22.15C38.0471 21.5875 38.2925 21.4817 38.7776 21.4928C39.9542 21.5151 41.1308 21.5485 42.3018 21.4817C43.0546 21.4371 43.2275 21.7101 43.2219 22.4118C43.194 25.9596 43.2108 29.5074 43.2108 33.0496C43.2108 33.4506 43.2108 33.8461 43.2108 34.2582C43.6959 34.2582 43.7851 33.885 43.9691 33.6567C45.6309 31.6071 47.2815 29.5575 48.9097 27.4801C49.3001 26.9788 49.7016 26.7282 50.3707 26.7449C51.9823 26.795 53.5938 26.7616 55.2221 26.7616C55.2723 27.2684 54.8875 27.5024 54.6533 27.7975C53.0251 29.8694 51.4079 31.9524 49.7295 33.9797C49.2499 34.5645 49.3224 34.8987 49.7685 35.4389C51.7314 37.8004 53.644 40.1953 55.7407 42.7796L55.7519 42.7852Z" fill="#044D8C"/>
<path d="M23.4483 28.8835C25.0376 27.2962 26.6826 26.4051 28.7625 26.4663C31.9912 26.561 34.35 28.7109 34.4559 31.9523C34.573 35.3497 34.4838 38.7527 34.5117 42.1557C34.5173 42.7405 34.2552 42.8018 33.7868 42.7906C32.5767 42.7684 31.3611 42.7461 30.151 42.7962C29.4819 42.824 29.3759 42.5456 29.3815 41.9663C29.4038 39.1871 29.3927 36.408 29.3927 33.6288C29.3927 31.4789 28.9019 30.5098 27.6138 30.1144C26.3591 29.7301 24.8535 30.4708 23.7941 31.9301C23.4874 32.3533 23.4372 32.7822 23.4427 33.2612C23.4483 36.1128 23.4204 38.9644 23.4651 41.816C23.4762 42.579 23.2643 42.8352 22.4892 42.7906C21.3572 42.7294 20.2141 42.7516 19.0765 42.7851C18.5412 42.8018 18.2847 42.6904 18.2847 42.0722C18.307 37.21 18.3014 32.3422 18.2847 27.48C18.2847 26.8952 18.4966 26.7225 19.0598 26.7448C20.1248 26.7838 21.1955 26.8228 22.255 26.7337C23.2197 26.6501 23.6323 26.9398 23.4539 27.9256C23.4149 28.1595 23.4483 28.4045 23.4483 28.8724V28.8835Z" fill="#044D8C"/>
<path d="M67.9975 40.6465C66.0792 42.9188 63.8097 43.4981 61.2278 42.891C58.7798 42.3173 57.1683 40.3346 57.107 37.7225C57.0289 34.325 57.0958 30.9221 57.0735 27.5191C57.0735 26.9733 57.2129 26.7282 57.8151 26.7505C59.0252 26.7895 60.2408 26.795 61.4509 26.7505C62.1033 26.7282 62.2483 26.9788 62.2427 27.5748C62.2148 30.315 62.226 33.0608 62.2371 35.8065C62.2371 36.3913 62.2371 36.9873 62.3487 37.5554C62.6944 39.2708 63.9881 39.9614 65.6554 39.371C67.1164 38.8531 67.9975 37.6111 67.9975 36.0683C67.9975 33.2501 68.0142 30.4375 67.9863 27.6193C67.9807 26.9733 68.1201 26.7059 68.8283 26.7449C69.9994 26.8062 71.1815 26.7895 72.3526 26.7505C72.9213 26.7338 73.1165 26.9009 73.1165 27.4857C73.0998 32.3479 73.0942 37.2156 73.1165 42.0778C73.1165 42.6905 72.8823 42.8074 72.3414 42.7907C71.2429 42.7573 70.1332 42.7128 69.0402 42.8019C68.1369 42.8743 67.8692 42.5401 67.9919 41.7102C68.0309 41.4373 67.9975 41.1589 67.9975 40.6409V40.6465Z" fill="#044D8C"/>
<path d="M10.1488 34.6593C10.1488 32.2866 10.1879 29.914 10.1265 27.5414C10.1042 26.7004 10.3719 26.4665 11.186 26.5222C12.2065 26.5946 13.2381 26.5667 14.2641 26.5277C14.8496 26.5055 15.0225 26.7227 15.0169 27.2796C15.0002 32.2087 15.0002 37.1321 15.0169 42.0612C15.0169 42.6571 14.7995 42.8075 14.2418 42.7908C13.1823 42.7574 12.1117 42.7351 11.0522 42.7908C10.3273 42.8298 10.1154 42.5958 10.1265 41.8774C10.1656 39.4713 10.1432 37.0597 10.1432 34.6537L10.1488 34.6593Z" fill="#044D8C"/>
<path d="M12.6861 19.0423C14.2419 19.0312 15.5133 20.2732 15.5133 21.8048C15.5133 23.3531 14.2642 24.5729 12.6973 24.5729C11.1136 24.5729 9.8645 23.3587 9.8645 21.8159C9.8645 20.2843 11.1136 19.059 12.6917 19.0479L12.6861 19.0423Z" fill="#044D8C"/>
</g>
<defs>
<clipPath id="clip0_423_3306">
<rect width="112" height="62" fill="white"/>
</clipPath>
</defs>
</svg>
